<svg width="155" height="60" viewBox="0 0 155 60" fill="none" xmlns="http://www.w3.org/2000/svg">
<path d="M0 0H149C152.314 0 155 2.68629 155 6V54C155 57.3137 152.314 60 149 60H0V0Z" fill="black"/>
<path d="M23.9 49.8001C23.6 49.8001 23.3 49.8001 23 49.8001C22.4 49.8001 21.8 49.8001 21 49.6001C20.4 49.5001 19.8 49.3001 19.2 49.1001C18.7 48.8001 18.2 48.5001 17.7 48.1001C17.3 47.7001 16.9 47.2001 16.7 46.6001C16.4 46.1001 16.3 45.6001 16.2 44.8001C16.1 44.1001 16 43.3001 16 42.8001C16 42.6001 16 41.9001 16 41.9001V17.9001C16 17.9001 16 17.2001 16 17.0001C16 16.5001 16 15.8001 16.2 15.0001C16.4 14.5001 16.5 13.9001 16.8 13.3001C17.1 12.8001 17.4 12.3001 17.8 11.8001C18.2 11.4001 18.7 11.1001 19.3 10.8001C19.9 10.5001 20.4 10.4001 21.1 10.3001C21.7 10.1001 22.5 10.1001 23 10.1001H23.9H130.7H131.6C132.1 10.1001 132.8 10.1001 133.6 10.3001C134.2 10.4001 134.7 10.6001 135.4 10.8001C135.9 11.1001 136.4 11.4001 136.9 11.8001C137.4 12.2001 137.7 12.7001 137.9 13.3001C138.2 13.8001 138.3 14.4001 138.4 15.0001C138.5 15.6001 138.6 16.4001 138.6 17.0001C138.6 17.3001 138.6 17.6001 138.6 17.9001C138.6 18.3001 138.6 18.6001 138.6 19.0001V40.7001C138.6 41.1001 138.6 41.4001 138.6 41.8001C138.6 42.1001 138.6 42.4001 138.6 42.7001C138.6 43.3001 138.5 43.9001 138.4 44.7001C138.3 45.3001 138.1 45.9001 137.9 46.5001C137.6 47.0001 137.3 47.5001 136.9 48.0001C136.5 48.5001 136 48.8001 135.4 49.0001C134.9 49.3001 134.4 49.4001 133.6 49.5001C133 49.6001 132.2 49.6001 131.6 49.7001C131.3 49.7001 131 49.7001 130.7 49.7001H129.6L23.9 49.8001Z" fill="#000001"/>
<path d="M40.8995 30.3001C40.8995 27.4001 43.2995 26.0001 43.3995 25.9001C41.9995 23.9001 39.9995 23.7001 39.1995 23.6001C37.3995 23.4001 35.7995 24.6001 34.7995 24.6001C33.8995 24.6001 32.4995 23.6001 31.0995 23.6001C29.1995 23.6001 27.4995 24.7001 26.3995 26.4001C24.3995 29.8001 25.8995 35.0001 27.8995 37.8001C28.7995 39.2001 29.9995 40.7001 31.3995 40.7001C32.8995 40.6001 33.3995 39.8001 35.0995 39.8001C36.8995 39.8001 37.2995 40.7001 38.7995 40.7001C40.2995 40.7001 41.2995 39.3001 42.1995 37.9001C43.2995 36.3001 43.7995 34.8001 43.7995 34.7001C43.8995 34.9001 40.8995 33.7001 40.8995 30.3001Z" fill="white"/>
<path d="M37.9993 21.9C38.6993 21 39.3993 19.6 39.0993 18.3C37.9993 18.3 36.5993 19 35.7993 20.1C35.0993 20.9 34.3993 22.3 34.6993 23.6C35.8993 23.6 37.2993 22.8 37.9993 21.9Z" fill="white"/>
<path d="M59.1 37.4002H54.2L53.1 40.9002H51L55.7 28.0002H57.8L62.5 40.9002H60.4L59.1 37.4002ZM54.8 35.8002H58.7L56.7 30.1002H56.6L54.8 35.8002Z" fill="white"/>
<path d="M72.5002 36.2001C72.5002 39.1001 70.9002 41.0001 68.6002 41.0001C67.2002 41.0001 66.2002 40.4001 65.7002 39.3001V44.0001H63.7002V31.6001H65.6002V33.2001C66.1002 32.2001 67.3002 31.5001 68.6002 31.5001C70.9002 31.4001 72.5002 33.3001 72.5002 36.2001ZM70.4002 36.2001C70.4002 34.3001 69.5002 33.1001 67.9002 33.1001C66.4002 33.1001 65.4002 34.3001 65.4002 36.2001C65.4002 38.1001 66.4002 39.3001 67.9002 39.3001C69.5002 39.4001 70.4002 38.1001 70.4002 36.2001Z" fill="white"/>
<path d="M82.8 36.2001C82.8 39.1001 81.2 41.0001 78.9 41.0001C77.5 41.0001 76.5 40.4001 76 39.3001V44.0001H74V31.6001H75.8V33.2001C76.3 32.2001 77.5 31.5001 78.8 31.5001C81.2 31.4001 82.8 33.3001 82.8 36.2001ZM80.8 36.2001C80.8 34.3001 79.9 33.1001 78.3 33.1001C76.8 33.1001 75.8 34.3001 75.8 36.2001C75.8 38.1001 76.8 39.3001 78.3 39.3001C79.9 39.4001 80.8 38.1001 80.8 36.2001Z" fill="white"/>
<path d="M89.7004 37.3001C89.8004 38.5001 91.1004 39.4001 92.8004 39.4001C94.5004 39.4001 95.6004 38.6001 95.6004 37.4001C95.6004 36.4001 94.9004 35.8001 93.2004 35.4001L91.5004 35.0001C89.1004 34.4001 88.1004 33.3001 88.1004 31.6001C88.1004 29.4001 90.1004 27.9001 92.8004 27.9001C95.5004 27.9001 97.4004 29.5001 97.5004 31.6001H95.5004C95.4004 30.4001 94.4004 29.5001 92.8004 29.5001C91.2004 29.5001 90.2004 30.3001 90.2004 31.5001C90.2004 32.4001 90.9004 33.0001 92.6004 33.4001L94.1004 33.7001C96.7004 34.3001 97.8004 35.4001 97.8004 37.2001C97.8004 39.6001 95.8004 41.1001 92.8004 41.1001C89.9004 41.1001 88.0004 39.6001 87.9004 37.3001C87.9004 37.3001 89.7004 37.3001 89.7004 37.3001Z" fill="white"/>
<path d="M101.7 29.3V31.5H103.5V33H101.7V38.2001C101.7 39.0001 102 39.3 102.8 39.3C103 39.3 103.3 39.3 103.4 39.3V40.9001C103.2 41.0001 102.8 41 102.4 41C100.5 41 99.8004 40.3 99.8004 38.5V33.1H98.4004V31.5H99.8004V29.3H101.7Z" fill="white"/>
<path d="M104.6 36.2001C104.6 33.3001 106.4 31.4001 109.1 31.4001C111.8 31.4001 113.6 33.3001 113.6 36.2001C113.6 39.2001 111.8 41.0001 109.1 41.0001C106.3 41.0001 104.6 39.1001 104.6 36.2001ZM111.6 36.2001C111.6 34.1001 110.7 33.0001 109.1 33.0001C107.5 33.0001 106.6 34.1001 106.6 36.2001C106.6 38.3001 107.5 39.4001 109.1 39.4001C110.7 39.5001 111.6 38.2001 111.6 36.2001Z" fill="white"/>
<path d="M115.1 31.5002H117V33.2002C117.3 32.2002 118.1 31.5002 119.3 31.5002C119.6 31.5002 119.8 31.5002 119.9 31.6002V33.4002C119.8 33.3002 119.4 33.3002 119.1 33.3002C117.9 33.3002 117.1 34.1002 117.1 35.5002V41.0002H115.1V31.5002Z" fill="white"/>
<path d="M128.8 38.1C128.6 39.8 126.8 41 124.7 41C122 41 120.2 39.1001 120.2 36.2001C120.2 33.3001 121.9 31.3 124.6 31.3C127.2 31.3 128.9 33.1 128.9 36V36.6H122.3V36.7001C122.3 38.3001 123.3 39.4001 124.8 39.4001C125.8 39.4001 126.7 38.9 127 38C127 38.1 128.8 38.1 128.8 38.1ZM122.3 35.3H127C127 33.8 126.1 32.9001 124.7 32.9001C123.3 32.9001 122.4 33.9 122.3 35.3Z" fill="white"/>
<path d="M54.3996 18.3C56.2996 18.3 57.2996 19.4 57.2996 21.4C57.2996 23.4 56.2996 24.5 54.3996 24.5H52.0996V18.3H54.3996ZM53.1996 23.7001H54.2996C55.4996 23.7001 56.3996 22.9 56.3996 21.5C56.3996 20.1 55.6996 19.3 54.2996 19.3H53.1996V23.7001Z" fill="white"/>
<path d="M58.5 22.1002C58.5 20.5002 59.3 19.7002 60.7 19.7002C62.1 19.7002 62.9 20.6002 62.9 22.1002C62.9 23.7002 62.1 24.5002 60.7 24.5002C59.3 24.6002 58.5 23.7002 58.5 22.1002ZM61.9 22.1002C61.9 21.1002 61.5 20.5002 60.7 20.5002C59.9 20.5002 59.5 21.1002 59.5 22.1002C59.5 23.1002 59.9 23.8002 60.7 23.8002C61.5 23.8002 61.9 23.1002 61.9 22.1002Z" fill="white"/>
<path d="M68.7998 24.5H67.7998L66.8998 21.1H66.7998L65.8998 24.5H64.9998L63.7998 19.8H64.6998L65.4998 23.3H65.5998L66.4998 19.8H67.3998L68.2998 23.3H68.3998L69.1998 19.8H70.0998L68.7998 24.5Z" fill="white"/>
<path d="M71.1992 19.8002H72.0992V20.5002H72.1992C72.3992 20.0002 72.8992 19.7002 73.5992 19.7002C74.5992 19.7002 75.2992 20.3002 75.2992 21.5002V24.5002H74.3992V21.7002C74.3992 21.0002 74.0992 20.6002 73.3992 20.6002C72.6992 20.6002 72.2992 21.0002 72.2992 21.7002V24.4002H71.3992C71.1992 24.4002 71.1992 19.8002 71.1992 19.8002Z" fill="white"/>
<path d="M76.5996 17.9001H77.4996V24.4001H76.5996V17.9001Z" fill="white"/>
<path d="M78.7998 22.1002C78.7998 20.5002 79.5998 19.7002 80.9998 19.7002C82.3998 19.7002 83.1998 20.6002 83.1998 22.1002C83.1998 23.7002 82.3998 24.5002 80.9998 24.5002C79.5998 24.6002 78.7998 23.7002 78.7998 22.1002ZM82.2998 22.1002C82.2998 21.1002 81.8998 20.5002 81.0998 20.5002C80.2998 20.5002 79.7998 21.2002 79.7998 22.1002C79.7998 23.1002 80.1998 23.8002 80.9998 23.8002C81.7998 23.8002 82.2998 23.1002 82.2998 22.1002Z" fill="white"/>
<path d="M84.1992 23.1001C84.1992 22.3001 84.7992 21.7001 85.9992 21.7001L87.1992 21.6001V21.2001C87.1992 20.7001 86.8992 20.5001 86.2992 20.5001C85.7992 20.5001 85.4992 20.7001 85.3992 21.0001H84.4992C84.5992 20.2001 85.2992 19.6001 86.3992 19.6001C87.4992 19.6001 88.2992 20.2001 88.2992 21.2001V24.4001H87.3992V23.8001H87.2992C86.9992 24.3001 86.4992 24.5001 85.7992 24.5001C84.7992 24.6001 84.1992 24.0001 84.1992 23.1001ZM87.1992 22.7001V22.3001L86.0992 22.4001C85.4992 22.4001 85.1992 22.7001 85.1992 23.0001C85.1992 23.4001 85.5992 23.6001 85.9992 23.6001C86.6992 23.8001 87.1992 23.4001 87.1992 22.7001Z" fill="white"/>
<path d="M89.1992 22.1001C89.1992 20.6001 89.8992 19.7001 91.1992 19.7001C91.7992 19.7001 92.2992 20.0001 92.6992 20.5001H92.7992V17.9001H93.6992V24.4001H92.7992V23.7001H92.6992C92.3992 24.2001 91.8992 24.5001 91.1992 24.5001C90.0992 24.6001 89.1992 23.7001 89.1992 22.1001ZM90.2992 22.1001C90.2992 23.1001 90.7992 23.7001 91.4992 23.7001C92.1992 23.7001 92.6992 23.1001 92.6992 22.1001C92.6992 21.2001 92.1992 20.5001 91.4992 20.5001C90.6992 20.5001 90.2992 21.2001 90.2992 22.1001Z" fill="white"/>
<path d="M97.5 22.1002C97.5 20.5002 98.3 19.7002 99.7 19.7002C101.1 19.7002 101.9 20.6002 101.9 22.1002C101.9 23.7002 101.1 24.5002 99.7 24.5002C98.3 24.6002 97.5 23.7002 97.5 22.1002ZM101 22.1002C101 21.1002 100.6 20.5002 99.8 20.5002C99 20.5002 98.6 21.1002 98.6 22.1002C98.6 23.1002 99 23.8002 99.8 23.8002C100.5 23.8002 101 23.1002 101 22.1002Z" fill="white"/>
<path d="M103.199 19.8002H104.099V20.5002H104.199C104.399 20.0002 104.899 19.7002 105.599 19.7002C106.599 19.7002 107.299 20.3002 107.299 21.5002V24.5002H106.399V21.7002C106.399 21.0002 106.099 20.6002 105.399 20.6002C104.699 20.6002 104.299 21.0002 104.299 21.7002V24.4002H103.399V19.8002H103.199Z" fill="white"/>
<path d="M112.3 18.7002V19.8002H113.3V20.6002H112.3V23.0002C112.3 23.5002 112.5 23.7002 112.9 23.7002C113 23.7002 113.1 23.7002 113.2 23.7002V24.4002C113.1 24.4002 112.9 24.4002 112.7 24.4002C111.7 24.4002 111.2 24.1002 111.2 23.2002V20.6002H110.5V19.9002H111.2V18.7002H112.3Z" fill="white"/>
<path d="M114.6 17.9001H115.5V20.5001H115.6C115.8 20.0001 116.3 19.7001 117.1 19.7001C118.1 19.7001 118.8 20.3001 118.8 21.5001V24.5001H117.8V21.7001C117.8 21.0001 117.5 20.6001 116.8 20.6001C116.1 20.6001 115.7 21.1001 115.7 21.7001V24.4001H114.8V18.0001H114.6V17.9001Z" fill="white"/>
<path d="M124.1 23.2002C123.9 24.0002 123.2 24.6002 122 24.6002C120.6 24.6002 119.8 23.7002 119.8 22.2002C119.8 20.7002 120.6 19.7002 122 19.7002C123.4 19.7002 124.1 20.6002 124.1 22.1002V22.4002H120.8C120.8 23.2002 121.3 23.8002 122 23.8002C122.5 23.8002 122.9 23.6002 123.1 23.3002C123.1 23.2002 124.1 23.2002 124.1 23.2002ZM120.7 21.7002H123.1C123.1 21.0002 122.6 20.5002 122 20.5002C121.2 20.5002 120.8 21.0002 120.7 21.7002Z" fill="white"/>
</svg>
