<svg width="155" height="60" viewBox="0 0 155 60" fill="none" xmlns="http://www.w3.org/2000/svg">
<path d="M0 6C0 2.68629 2.68629 0 6 0H155V60H6C2.6863 60 0 57.3137 0 54V6Z" fill="black"/>
<g clip-path="url(#clip0_499_6799)">
<path d="M140 50H15C12.2 50 10 47.8 10 45V15C10 12.2 12.2 10 15 10H140C142.8 10 145 12.2 145 15V45C145 47.7 142.8 50 140 50Z" fill="black"/>
<path d="M57.4004 20.1999C57.4004 20.9999 57.2004 21.6999 56.7004 22.1999C56.1004 22.7999 55.4004 23.0999 54.5004 23.0999C53.6004 23.0999 52.9004 22.7999 52.3004 22.1999C51.7004 21.5999 51.4004 20.8999 51.4004 19.9999C51.4004 19.0999 51.7004 18.3999 52.3004 17.7999C52.9004 17.1999 53.6004 16.8999 54.5004 16.8999C54.9004 16.8999 55.3004 16.9999 55.7004 17.1999C56.1004 17.3999 56.4004 17.5999 56.6004 17.8999L56.1004 18.3999C55.7004 17.8999 55.2004 17.6999 54.5004 17.6999C53.9004 17.6999 53.3004 17.8999 52.9004 18.3999C52.4004 18.7999 52.2004 19.3999 52.2004 20.0999C52.2004 20.7999 52.4004 21.3999 52.9004 21.7999C53.4004 22.1999 53.9004 22.4999 54.5004 22.4999C55.2004 22.4999 55.7004 22.2999 56.2004 21.7999C56.5004 21.4999 56.7004 21.0999 56.7004 20.5999H54.5004V19.8999H57.4004C57.4004 19.8999 57.4004 20.0999 57.4004 20.1999Z" fill="white" stroke="white" stroke-width="0.2" stroke-miterlimit="10"/>
<path d="M62 17.7H59.3V19.6H61.8V20.3H59.3V22.2H62V23H58.5V17H62V17.7Z" fill="white" stroke="white" stroke-width="0.2" stroke-miterlimit="10"/>
<path d="M65.3008 23H64.5008V17.7H62.8008V17H67.0008V17.7H65.3008V23Z" fill="white" stroke="white" stroke-width="0.2" stroke-miterlimit="10"/>
<path d="M69.9004 23V17H70.7004V23H69.9004Z" fill="white" stroke="white" stroke-width="0.2" stroke-miterlimit="10"/>
<path d="M74.1006 23H73.3006V17.7H71.6006V17H75.7006V17.7H74.0006L74.1006 23Z" fill="white" stroke="white" stroke-width="0.2" stroke-miterlimit="10"/>
<path d="M83.6008 22.1999C83.0008 22.7999 82.3008 23.0999 81.4008 23.0999C80.5008 23.0999 79.8008 22.7999 79.2008 22.1999C78.6008 21.5999 78.3008 20.8999 78.3008 19.9999C78.3008 19.0999 78.6008 18.3999 79.2008 17.7999C79.8008 17.1999 80.5008 16.8999 81.4008 16.8999C82.3008 16.8999 83.0008 17.1999 83.6008 17.7999C84.2008 18.3999 84.5008 19.0999 84.5008 19.9999C84.5008 20.8999 84.2008 21.5999 83.6008 22.1999ZM79.8008 21.6999C80.2008 22.0999 80.8008 22.3999 81.4008 22.3999C82.0008 22.3999 82.6008 22.1999 83.0008 21.6999C83.4008 21.2999 83.7008 20.6999 83.7008 19.9999C83.7008 19.2999 83.5008 18.6999 83.0008 18.2999C82.6008 17.8999 82.0008 17.5999 81.4008 17.5999C80.8008 17.5999 80.2008 17.7999 79.8008 18.2999C79.4008 18.6999 79.1008 19.2999 79.1008 19.9999C79.1008 20.6999 79.3008 21.2999 79.8008 21.6999Z" fill="white" stroke="white" stroke-width="0.2" stroke-miterlimit="10"/>
<path d="M85.6006 23V17H86.5006L89.4006 21.7V20.5V17H90.2006V23H89.4006L86.3006 18.1V19.3V23H85.6006Z" fill="white" stroke="white" stroke-width="0.2" stroke-miterlimit="10"/>
<path d="M78.0996 31.8001C75.6996 31.8001 73.7996 33.6001 73.7996 36.1001C73.7996 38.5001 75.6996 40.4001 78.0996 40.4001C80.4996 40.4001 82.3996 38.6001 82.3996 36.1001C82.3996 33.5001 80.4996 31.8001 78.0996 31.8001ZM78.0996 38.6001C76.7996 38.6001 75.6996 37.5001 75.6996 36.0001C75.6996 34.5001 76.7996 33.4001 78.0996 33.4001C79.3996 33.4001 80.4996 34.4001 80.4996 36.0001C80.4996 37.5001 79.3996 38.6001 78.0996 38.6001ZM68.7996 31.8001C66.3996 31.8001 64.4996 33.6001 64.4996 36.1001C64.4996 38.5001 66.3996 40.4001 68.7996 40.4001C71.1996 40.4001 73.0996 38.6001 73.0996 36.1001C73.0996 33.5001 71.1996 31.8001 68.7996 31.8001ZM68.7996 38.6001C67.4996 38.6001 66.3996 37.5001 66.3996 36.0001C66.3996 34.5001 67.4996 33.4001 68.7996 33.4001C70.0996 33.4001 71.1996 34.4001 71.1996 36.0001C71.1996 37.5001 70.0996 38.6001 68.7996 38.6001ZM57.6996 33.1001V34.9001H61.9996C61.8996 35.9001 61.4996 36.7001 60.9996 37.2001C60.3996 37.8001 59.3996 38.5001 57.6996 38.5001C54.9996 38.5001 52.9996 36.4001 52.9996 33.7001C52.9996 31.0001 55.0996 28.9001 57.6996 28.9001C59.0996 28.9001 60.1996 29.5001 60.9996 30.2001L62.2996 28.9001C61.1996 27.9001 59.7996 27.1001 57.7996 27.1001C54.1996 27.1001 51.0996 30.1001 51.0996 33.7001C51.0996 37.3001 54.1996 40.3001 57.7996 40.3001C59.7996 40.3001 61.1996 39.7001 62.3996 38.4001C63.5996 37.2001 63.9996 35.5001 63.9996 34.2001C63.9996 33.8001 63.9996 33.4001 63.8996 33.1001H57.6996ZM103.1 34.5001C102.7 33.5001 101.7 31.8001 99.4996 31.8001C97.2996 31.8001 95.4996 33.5001 95.4996 36.1001C95.4996 38.5001 97.2996 40.4001 99.6996 40.4001C101.6 40.4001 102.8 39.2001 103.2 38.5001L101.8 37.5001C101.3 38.2001 100.7 38.7001 99.6996 38.7001C98.6996 38.7001 98.0996 38.3001 97.5996 37.4001L103.3 35.0001L103.1 34.5001ZM97.2996 35.9001C97.2996 34.3001 98.5996 33.4001 99.4996 33.4001C100.2 33.4001 100.9 33.8001 101.1 34.3001L97.2996 35.9001ZM92.5996 40.0001H94.4996V27.5001H92.5996V40.0001ZM89.5996 32.7001C89.0996 32.2001 88.2996 31.7001 87.2996 31.7001C85.1996 31.7001 83.1996 33.6001 83.1996 36.0001C83.1996 38.4001 85.0996 40.2001 87.2996 40.2001C88.2996 40.2001 89.0996 39.7001 89.4996 39.2001H89.5996V39.8001C89.5996 41.4001 88.6996 42.3001 87.2996 42.3001C86.1996 42.3001 85.3996 41.5001 85.1996 40.8001L83.5996 41.5001C84.0996 42.6001 85.2996 44.0001 87.3996 44.0001C89.5996 44.0001 91.3996 42.7001 91.3996 39.6001V32.0001H89.5996V32.7001ZM87.3996 38.6001C86.0996 38.6001 84.9996 37.5001 84.9996 36.0001C84.9996 34.5001 86.0996 33.4001 87.3996 33.4001C88.6996 33.4001 89.6996 34.5001 89.6996 36.0001C89.6996 37.5001 88.6996 38.6001 87.3996 38.6001ZM111.8 27.5001H107.3V40.0001H109.2V35.3001H111.8C113.9 35.3001 115.9 33.8001 115.9 31.4001C115.9 29.0001 113.9 27.5001 111.8 27.5001ZM111.9 33.5001H109.2V29.2001H111.9C113.3 29.2001 114.1 30.4001 114.1 31.3001C114 32.4001 113.2 33.5001 111.9 33.5001ZM123.4 31.7001C122 31.7001 120.6 32.3001 120.1 33.6001L121.8 34.3001C122.2 33.6001 122.8 33.4001 123.5 33.4001C124.5 33.4001 125.4 34.0001 125.5 35.0001V35.1001C125.2 34.9001 124.4 34.6001 123.6 34.6001C121.8 34.6001 120 35.6001 120 37.4001C120 39.1001 121.5 40.2001 123.1 40.2001C124.4 40.2001 125 39.6001 125.5 39.0001H125.6V40.0001H127.4V35.2001C127.2 33.0001 125.5 31.7001 123.4 31.7001ZM123.2 38.6001C122.6 38.6001 121.7 38.3001 121.7 37.5001C121.7 36.5001 122.8 36.2001 123.7 36.2001C124.5 36.2001 124.9 36.4001 125.4 36.6001C125.2 37.8001 124.2 38.6001 123.2 38.6001ZM133.7 32.0001L131.6 37.4001H131.5L129.3 32.0001H127.3L130.6 39.6001L128.7 43.8001H130.6L135.7 32.0001H133.7ZM116.9 40.0001H118.8V27.5001H116.9V40.0001Z" fill="white"/>
<path d="M20.4004 17.5C20.1004 17.8 19.9004 18.3 19.9004 18.9V41C19.9004 41.6 20.1004 42.1 20.4004 42.4L20.5004 42.5L32.9004 30.1V30V29.9L20.4004 17.5Z" fill="url(#paint0_linear_499_6799)"/>
<path d="M37.0004 34.2998L32.9004 30.1998V29.9998V29.8998L37.0004 25.7998L37.1004 25.8998L42.0004 28.6998C43.4004 29.4998 43.4004 30.7998 42.0004 31.5998L37.0004 34.2998Z" fill="url(#paint1_linear_499_6799)"/>
<path d="M37.1004 34.2L32.9004 30L20.4004 42.5C20.9004 43 21.6004 43 22.5004 42.6L37.1004 34.2Z" fill="url(#paint2_linear_499_6799)"/>
<path d="M37.1004 25.7999L22.5004 17.4999C21.6004 16.9999 20.9004 17.0999 20.4004 17.5999L32.9004 29.9999L37.1004 25.7999Z" fill="url(#paint3_linear_499_6799)"/>
<path opacity="0.2" d="M37.0004 34.0999L22.5004 42.2999C21.7004 42.7999 21.0004 42.6999 20.5004 42.2999L20.4004 42.3999L20.5004 42.4999C21.0004 42.8999 21.7004 42.9999 22.5004 42.4999L37.0004 34.0999Z" fill="black"/>
<path opacity="0.12" d="M20.4 42.2999C20.1 41.9999 20 41.4999 20 40.8999V40.9999C20 41.5999 20.2 42.0999 20.5 42.3999V42.2999H20.4Z" fill="black"/>
<path opacity="0.12" d="M42 31.3L37 34.1L37.1 34.2L42 31.3C42.7 31 43 30.5 43 30C43 30.5 42.6 30.9 42 31.3Z" fill="black"/>
<path opacity="0.25" d="M22.5 17.5999L42 28.6999C42.6 29.0999 43 29.4999 43 29.9999C43 29.4999 42.7 28.9999 42 28.5999L22.5 17.4999C21.1 16.6999 20 17.3999 20 18.9999V19.0999C20 17.4999 21.1 16.7999 22.5 17.5999Z" fill="white"/>
</g>
<defs>
<linearGradient id="paint0_linear_499_6799" x1="31.7704" y1="18.6801" x2="14.988" y2="35.4624" gradientUnits="userSpaceOnUse">
<stop stop-color="#00A0FF"/>
<stop offset="0.00657445" stop-color="#00A1FF"/>
<stop offset="0.2601" stop-color="#00BEFF"/>
<stop offset="0.5122" stop-color="#00D2FF"/>
<stop offset="0.7604" stop-color="#00DFFF"/>
<stop offset="1" stop-color="#00E3FF"/>
</linearGradient>
<linearGradient id="paint1_linear_499_6799" x1="43.8348" y1="30.0498" x2="19.6379" y2="30.0498" gradientUnits="userSpaceOnUse">
<stop stop-color="#FFE000"/>
<stop offset="0.4087" stop-color="#FFBD00"/>
<stop offset="0.7754" stop-color="#FFA500"/>
<stop offset="1" stop-color="#FF9C00"/>
</linearGradient>
<linearGradient id="paint2_linear_499_6799" x1="34.8159" y1="32.2845" x2="12.0576" y2="55.0428" gradientUnits="userSpaceOnUse">
<stop stop-color="#FF3A44"/>
<stop offset="1" stop-color="#C31162"/>
</linearGradient>
<linearGradient id="paint3_linear_499_6799" x1="17.2621" y1="10.2117" x2="27.4247" y2="20.3742" gradientUnits="userSpaceOnUse">
<stop stop-color="#32A071"/>
<stop offset="0.0685" stop-color="#2DA771"/>
<stop offset="0.4762" stop-color="#15CF74"/>
<stop offset="0.8009" stop-color="#06E775"/>
<stop offset="1" stop-color="#00F076"/>
</linearGradient>
<clipPath id="clip0_499_6799">
<rect width="155" height="60" fill="white"/>
</clipPath>
</defs>
</svg>
