<svg width="21" height="18" viewBox="0 0 21 18" fill="none" xmlns="http://www.w3.org/2000/svg">
<path d="M20.8632 15.1825L18.2927 10.7561C17.5678 11.599 16.6467 12.3158 15.5824 12.865C14.5182 13.4142 13.3319 13.785 12.0921 13.956L14.2437 17.6616C14.3068 17.767 14.4059 17.855 14.529 17.9149C14.652 17.9748 14.7937 18.004 14.9366 17.999C15.0796 17.994 15.2176 17.9549 15.3339 17.8865C15.4503 17.8182 15.5399 17.7236 15.5917 17.6141L16.6955 15.1817L16.9228 15.0999L19.9518 15.9851C20.086 16.0269 20.2322 16.0349 20.3719 16.0082C20.5116 15.9815 20.6384 15.9213 20.7362 15.8351C20.834 15.749 20.8983 15.6409 20.9209 15.5247C20.9435 15.4084 20.9234 15.2893 20.8632 15.1825ZM10.4639 0.000300953C8.91613 0.027683 7.41265 0.429338 6.14191 1.15491C4.87117 1.88049 3.88969 2.8977 3.32047 4.07907C2.75124 5.26045 2.61961 6.5534 2.94207 7.7959C3.26453 9.0384 4.02675 10.1752 5.13317 11.0637C6.23959 11.9523 7.64099 12.553 9.16174 12.7908C10.6825 13.0285 12.2549 12.8927 13.6819 12.4002C15.1089 11.9077 16.3271 11.0805 17.1837 10.0223C18.0403 8.96415 18.4972 7.72204 18.4972 6.45167C18.4719 4.72266 17.6119 3.07246 16.106 1.86303C14.6 0.65361 12.5709 -0.0162891 10.4639 0.000300953ZM14.3723 5.97796L12.9485 7.09312L13.2845 8.66811C13.305 8.77753 13.288 8.88946 13.2355 8.99141C13.1829 9.09336 13.0969 9.18134 12.9869 9.2455C12.877 9.30965 12.7475 9.34749 12.6129 9.35476C12.4783 9.36203 12.3439 9.33842 12.2247 9.28664L10.4639 8.54292L8.70307 9.28664C8.58384 9.33842 8.44942 9.36203 8.31482 9.35476C8.18021 9.34749 8.05073 9.30965 7.9408 9.2455C7.83087 9.18134 7.74481 9.09336 7.69226 8.99141C7.63972 8.88946 7.62274 8.77753 7.64321 8.66811L7.9792 7.09312L6.55542 5.97796C6.45816 5.90164 6.38931 5.80418 6.35685 5.69701C6.32439 5.58984 6.32967 5.47732 6.37207 5.37251C6.41446 5.26771 6.4922 5.17496 6.59632 5.105C6.70044 5.03503 6.82666 4.99075 6.96023 4.97731L8.92842 4.74739L9.80882 3.31478C9.87128 3.21651 9.96535 3.13413 10.0808 3.07667C10.1963 3.01922 10.3288 2.98888 10.4639 2.98888C10.5989 2.98888 10.7314 3.01922 10.8469 3.07667C10.9624 3.13413 11.0565 3.21651 11.1189 3.31478L11.9993 4.74739L13.9685 4.97731C14.102 4.99088 14.228 5.03523 14.332 5.10525C14.436 5.17526 14.5137 5.26808 14.556 5.37286C14.5983 5.47765 14.6034 5.5901 14.5709 5.69721C14.5384 5.80432 14.4695 5.90169 14.3723 5.97796ZM2.63499 10.7561L0.0645761 15.1825C0.00554411 15.2892 -0.0136033 15.4079 0.00956274 15.5235C0.0327288 15.6391 0.0971318 15.7465 0.194685 15.832C0.292238 15.9176 0.418578 15.9775 0.557627 16.0042C0.696676 16.0308 0.842225 16.0231 0.975887 15.9819L4.00491 15.0966L4.23226 15.1784L5.33503 17.6117C5.38689 17.7211 5.47647 17.8157 5.59281 17.8841C5.70915 17.9524 5.84719 17.9915 5.99014 17.9966C6.13308 18.0016 6.2747 17.9724 6.39775 17.9125C6.52079 17.8525 6.61994 17.7645 6.68304 17.6591L8.8347 13.9536C7.5953 13.7827 6.40937 13.4122 5.34531 12.8634C4.28125 12.3147 3.3601 11.5984 2.63499 10.7561Z" fill="#F38438"/>
</svg>
