<svg width="138" height="12" viewBox="0 0 138 12" fill="none" xmlns="http://www.w3.org/2000/svg">
<path d="M0.0732422 11V1.04688H2.44531C3.60742 1.04688 4.50977 1.41146 5.15234 2.14062C5.79492 2.86523 6.11621 3.88607 6.11621 5.20312V6.87109C6.11621 8.18815 5.79036 9.20671 5.13867 9.92676C4.48698 10.6423 3.54134 11 2.30176 11H0.0732422ZM1.32422 2.12695V9.92676H2.3291C3.20866 9.92676 3.85124 9.67611 4.25684 9.1748C4.66243 8.66895 4.86979 7.92155 4.87891 6.93262V5.16895C4.87891 4.12077 4.67611 3.35286 4.27051 2.86523C3.86947 2.37305 3.26107 2.12695 2.44531 2.12695H1.32422ZM14.5449 6.89844C14.5449 8.25651 14.2555 9.30241 13.6768 10.0361C13.098 10.7699 12.2754 11.1367 11.209 11.1367C10.1836 11.1367 9.3724 10.7812 8.77539 10.0703C8.18294 9.35482 7.87533 8.34538 7.85254 7.04199V5.16895C7.85254 3.83822 8.14648 2.79688 8.73438 2.04492C9.32227 1.28841 10.1426 0.910156 11.1953 0.910156C12.2435 0.910156 13.0592 1.27246 13.6426 1.99707C14.2305 2.71712 14.5312 3.74707 14.5449 5.08691V6.89844ZM13.2939 5.15527C13.2939 4.10254 13.1208 3.32096 12.7744 2.81055C12.4326 2.29557 11.9062 2.03809 11.1953 2.03809C10.5072 2.03809 9.98535 2.29785 9.62988 2.81738C9.27897 3.33691 9.10124 4.10254 9.09668 5.11426V6.89844C9.09668 7.91471 9.27214 8.68945 9.62305 9.22266C9.97852 9.75586 10.5072 10.0225 11.209 10.0225C11.9108 10.0225 12.4303 9.77637 12.7676 9.28418C13.1048 8.79199 13.2803 8.03776 13.2939 7.02148V5.15527ZM18.3799 7.8623L18.5098 8.97656L18.708 7.99219L20.3008 1.04688H21.3467L22.8916 7.99219L23.0898 9.00391L23.2334 7.85547L24.4502 1.04688H25.7012L23.7188 11H22.5908L20.9297 3.74707L20.8271 3.15918L20.7246 3.74707L19.002 11H17.8672L15.8916 1.04688H17.1426L18.3799 7.8623ZM33.6445 11H32.3867L28.4014 3.33008V11H27.1436V1.04688H28.4014L32.4004 8.75098V1.04688H33.6445V11ZM37.0693 9.92676H40.9727V11H35.8115V1.04688H37.0693V9.92676ZM48.4922 6.89844C48.4922 8.25651 48.2028 9.30241 47.624 10.0361C47.0452 10.7699 46.2227 11.1367 45.1562 11.1367C44.1309 11.1367 43.3197 10.7812 42.7227 10.0703C42.1302 9.35482 41.8226 8.34538 41.7998 7.04199V5.16895C41.7998 3.83822 42.0938 2.79688 42.6816 2.04492C43.2695 1.28841 44.0898 0.910156 45.1426 0.910156C46.1908 0.910156 47.0065 1.27246 47.5898 1.99707C48.1777 2.71712 48.4785 3.74707 48.4922 5.08691V6.89844ZM47.2412 5.15527C47.2412 4.10254 47.068 3.32096 46.7217 2.81055C46.3799 2.29557 45.8535 2.03809 45.1426 2.03809C44.4544 2.03809 43.9326 2.29785 43.5771 2.81738C43.2262 3.33691 43.0485 4.10254 43.0439 5.11426V6.89844C43.0439 7.91471 43.2194 8.68945 43.5703 9.22266C43.9258 9.75586 44.4544 10.0225 45.1562 10.0225C45.8581 10.0225 46.3776 9.77637 46.7148 9.28418C47.0521 8.79199 47.2275 8.03776 47.2412 7.02148V5.15527ZM54.918 8.40234H51.5547L50.7822 11H49.4971L52.7031 1.04688H53.7764L56.9893 11H55.7041L54.918 8.40234ZM51.8828 7.32227H54.5967L53.2363 2.79688L51.8828 7.32227ZM58.3428 11V1.04688H60.7148C61.877 1.04688 62.7793 1.41146 63.4219 2.14062C64.0645 2.86523 64.3857 3.88607 64.3857 5.20312V6.87109C64.3857 8.18815 64.0599 9.20671 63.4082 9.92676C62.7565 10.6423 61.8109 11 60.5713 11H58.3428ZM59.5938 2.12695V9.92676H60.5986C61.4782 9.92676 62.1208 9.67611 62.5264 9.1748C62.932 8.66895 63.1393 7.92155 63.1484 6.93262V5.16895C63.1484 4.12077 62.9456 3.35286 62.54 2.86523C62.139 2.37305 61.5306 2.12695 60.7148 2.12695H59.5938ZM71.4541 7.8623L71.584 8.97656L71.7822 7.99219L73.375 1.04688H74.4209L75.9658 7.99219L76.1641 9.00391L76.3076 7.85547L77.5244 1.04688H78.7754L76.793 11H75.665L74.0039 3.74707L73.9014 3.15918L73.7988 3.74707L72.0762 11H70.9414L68.9658 1.04688H70.2168L71.4541 7.8623ZM86.6914 6.89844C86.6914 8.25651 86.402 9.30241 85.8232 10.0361C85.2445 10.7699 84.4219 11.1367 83.3555 11.1367C82.3301 11.1367 81.5189 10.7812 80.9219 10.0703C80.3294 9.35482 80.0218 8.34538 79.999 7.04199V5.16895C79.999 3.83822 80.293 2.79688 80.8809 2.04492C81.4688 1.28841 82.2891 0.910156 83.3418 0.910156C84.39 0.910156 85.2057 1.27246 85.7891 1.99707C86.377 2.71712 86.6777 3.74707 86.6914 5.08691V6.89844ZM85.4404 5.15527C85.4404 4.10254 85.2673 3.32096 84.9209 2.81055C84.5791 2.29557 84.0527 2.03809 83.3418 2.03809C82.6536 2.03809 82.1318 2.29785 81.7764 2.81738C81.4255 3.33691 81.2477 4.10254 81.2432 5.11426V6.89844C81.2432 7.91471 81.4186 8.68945 81.7695 9.22266C82.125 9.75586 82.6536 10.0225 83.3555 10.0225C84.0573 10.0225 84.5768 9.77637 84.9141 9.28418C85.2513 8.79199 85.4268 8.03776 85.4404 7.02148V5.15527ZM91.6338 6.97363H89.8838V11H88.626V1.04688H91.415C92.3903 1.04688 93.1286 1.30208 93.6299 1.8125C94.1312 2.31836 94.3818 3.0612 94.3818 4.04102C94.3818 4.65625 94.2451 5.19401 93.9717 5.6543C93.7028 6.11003 93.32 6.4541 92.8232 6.68652L94.751 10.918V11H93.4043L91.6338 6.97363ZM89.8838 5.90039H91.4014C91.9255 5.90039 92.3424 5.73177 92.6523 5.39453C92.9668 5.05729 93.124 4.60612 93.124 4.04102C93.124 2.76497 92.5452 2.12695 91.3877 2.12695H89.8838V5.90039ZM98.292 6.41309L97.3145 7.5957V11H96.0635V1.04688H97.3145V5.85254L98.1348 4.76562L100.814 1.04688H102.318L99.085 5.42871L102.571 11H101.074L98.292 6.41309ZM106.905 11V1.04688H109.742C110.649 1.04688 111.33 1.2679 111.786 1.70996C112.246 2.15202 112.477 2.8151 112.477 3.69922C112.477 4.16406 112.36 4.57422 112.128 4.92969C111.896 5.28516 111.581 5.56087 111.185 5.75684C111.64 5.89355 112 6.17383 112.265 6.59766C112.534 7.02148 112.668 7.5319 112.668 8.12891C112.668 9.02214 112.422 9.72396 111.93 10.2344C111.442 10.7448 110.745 11 109.838 11H106.905ZM108.156 6.34473V9.92676H109.865C110.339 9.92676 110.715 9.77181 110.993 9.46191C111.271 9.14746 111.41 8.70768 111.41 8.14258C111.41 6.94401 110.904 6.34473 109.893 6.34473H108.156ZM108.156 5.29199H109.763C110.196 5.29199 110.544 5.14616 110.809 4.85449C111.077 4.56283 111.212 4.17546 111.212 3.69238C111.212 3.14551 111.091 2.74902 110.85 2.50293C110.608 2.25228 110.239 2.12695 109.742 2.12695H108.156V5.29199ZM121.021 6.89844C121.021 8.25651 120.732 9.30241 120.153 10.0361C119.575 10.7699 118.752 11.1367 117.686 11.1367C116.66 11.1367 115.849 10.7812 115.252 10.0703C114.66 9.35482 114.352 8.34538 114.329 7.04199V5.16895C114.329 3.83822 114.623 2.79688 115.211 2.04492C115.799 1.28841 116.619 0.910156 117.672 0.910156C118.72 0.910156 119.536 1.27246 120.119 1.99707C120.707 2.71712 121.008 3.74707 121.021 5.08691V6.89844ZM119.771 5.15527C119.771 4.10254 119.597 3.32096 119.251 2.81055C118.909 2.29557 118.383 2.03809 117.672 2.03809C116.984 2.03809 116.462 2.29785 116.106 2.81738C115.756 3.33691 115.578 4.10254 115.573 5.11426V6.89844C115.573 7.91471 115.749 8.68945 116.1 9.22266C116.455 9.75586 116.984 10.0225 117.686 10.0225C118.387 10.0225 118.907 9.77637 119.244 9.28418C119.581 8.79199 119.757 8.03776 119.771 7.02148V5.15527ZM129.43 6.89844C129.43 8.25651 129.14 9.30241 128.562 10.0361C127.983 10.7699 127.16 11.1367 126.094 11.1367C125.068 11.1367 124.257 10.7812 123.66 10.0703C123.068 9.35482 122.76 8.34538 122.737 7.04199V5.16895C122.737 3.83822 123.031 2.79688 123.619 2.04492C124.207 1.28841 125.027 0.910156 126.08 0.910156C127.128 0.910156 127.944 1.27246 128.527 1.99707C129.115 2.71712 129.416 3.74707 129.43 5.08691V6.89844ZM128.179 5.15527C128.179 4.10254 128.006 3.32096 127.659 2.81055C127.317 2.29557 126.791 2.03809 126.08 2.03809C125.392 2.03809 124.87 2.29785 124.515 2.81738C124.164 3.33691 123.986 4.10254 123.981 5.11426V6.89844C123.981 7.91471 124.157 8.68945 124.508 9.22266C124.863 9.75586 125.392 10.0225 126.094 10.0225C126.796 10.0225 127.315 9.77637 127.652 9.28418C127.99 8.79199 128.165 8.03776 128.179 7.02148V5.15527ZM133.593 6.41309L132.615 7.5957V11H131.364V1.04688H132.615V5.85254L133.436 4.76562L136.115 1.04688H137.619L134.386 5.42871L137.872 11H136.375L133.593 6.41309Z" fill="#1A1D24" fill-opacity="0.8"/>
</svg>
