<svg width="141" height="12" viewBox="0 0 141 12" fill="none" xmlns="http://www.w3.org/2000/svg">
<path d="M0.0380859 11.0005V1.04736H2.41016C3.57227 1.04736 4.47461 1.41195 5.11719 2.14111C5.75977 2.86572 6.08105 3.88656 6.08105 5.20361V6.87158C6.08105 8.18864 5.75521 9.20719 5.10352 9.92725C4.45182 10.6427 3.50618 11.0005 2.2666 11.0005H0.0380859ZM1.28906 2.12744V9.92725H2.29395C3.1735 9.92725 3.81608 9.6766 4.22168 9.17529C4.62728 8.66943 4.83464 7.92204 4.84375 6.93311V5.16943C4.84375 4.12126 4.64095 3.35335 4.23535 2.86572C3.83431 2.37354 3.22591 2.12744 2.41016 2.12744H1.28906ZM14.5098 6.89893C14.5098 8.257 14.2204 9.3029 13.6416 10.0366C13.0628 10.7703 12.2402 11.1372 11.1738 11.1372C10.1484 11.1372 9.33724 10.7817 8.74023 10.0708C8.14779 9.35531 7.84017 8.34587 7.81738 7.04248V5.16943C7.81738 3.8387 8.11133 2.79736 8.69922 2.04541C9.28711 1.2889 10.1074 0.910645 11.1602 0.910645C12.2083 0.910645 13.0241 1.27295 13.6074 1.99756C14.1953 2.71761 14.4961 3.74756 14.5098 5.0874V6.89893ZM13.2588 5.15576C13.2588 4.10303 13.0856 3.32145 12.7393 2.81104C12.3975 2.29606 11.8711 2.03857 11.1602 2.03857C10.472 2.03857 9.9502 2.29834 9.59473 2.81787C9.24382 3.3374 9.06608 4.10303 9.06152 5.11475V6.89893C9.06152 7.9152 9.23698 8.68994 9.58789 9.22314C9.94336 9.75635 10.472 10.0229 11.1738 10.0229C11.8757 10.0229 12.3952 9.77686 12.7324 9.28467C13.0697 8.79248 13.2451 8.03825 13.2588 7.02197V5.15576ZM18.3447 7.86279L18.4746 8.97705L18.6729 7.99268L20.2656 1.04736H21.3115L22.8564 7.99268L23.0547 9.00439L23.1982 7.85596L24.415 1.04736H25.666L23.6836 11.0005H22.5557L20.8945 3.74756L20.792 3.15967L20.6895 3.74756L18.9668 11.0005H17.832L15.8564 1.04736H17.1074L18.3447 7.86279ZM33.6094 11.0005H32.3516L28.3662 3.33057V11.0005H27.1084V1.04736H28.3662L32.3652 8.75146V1.04736H33.6094V11.0005ZM37.0342 9.92725H40.9375V11.0005H35.7764V1.04736H37.0342V9.92725ZM48.457 6.89893C48.457 8.257 48.1676 9.3029 47.5889 10.0366C47.0101 10.7703 46.1875 11.1372 45.1211 11.1372C44.0957 11.1372 43.2845 10.7817 42.6875 10.0708C42.0951 9.35531 41.7874 8.34587 41.7646 7.04248V5.16943C41.7646 3.8387 42.0586 2.79736 42.6465 2.04541C43.2344 1.2889 44.0547 0.910645 45.1074 0.910645C46.1556 0.910645 46.9714 1.27295 47.5547 1.99756C48.1426 2.71761 48.4434 3.74756 48.457 5.0874V6.89893ZM47.2061 5.15576C47.2061 4.10303 47.0329 3.32145 46.6865 2.81104C46.3447 2.29606 45.8184 2.03857 45.1074 2.03857C44.4193 2.03857 43.8975 2.29834 43.542 2.81787C43.1911 3.3374 43.0133 4.10303 43.0088 5.11475V6.89893C43.0088 7.9152 43.1842 8.68994 43.5352 9.22314C43.8906 9.75635 44.4193 10.0229 45.1211 10.0229C45.8229 10.0229 46.3424 9.77686 46.6797 9.28467C47.0169 8.79248 47.1924 8.03825 47.2061 7.02197V5.15576ZM54.8828 8.40283H51.5195L50.7471 11.0005H49.4619L52.668 1.04736H53.7412L56.9541 11.0005H55.6689L54.8828 8.40283ZM51.8477 7.32275H54.5615L53.2012 2.79736L51.8477 7.32275ZM58.3076 11.0005V1.04736H60.6797C61.8418 1.04736 62.7441 1.41195 63.3867 2.14111C64.0293 2.86572 64.3506 3.88656 64.3506 5.20361V6.87158C64.3506 8.18864 64.0247 9.20719 63.373 9.92725C62.7214 10.6427 61.7757 11.0005 60.5361 11.0005H58.3076ZM59.5586 2.12744V9.92725H60.5635C61.443 9.92725 62.0856 9.6766 62.4912 9.17529C62.8968 8.66943 63.1042 7.92204 63.1133 6.93311V5.16943C63.1133 4.12126 62.9105 3.35335 62.5049 2.86572C62.1038 2.37354 61.4954 2.12744 60.6797 2.12744H59.5586ZM75.7598 7.84229C75.7051 8.90869 75.4043 9.72445 74.8574 10.2896C74.3151 10.8547 73.5472 11.1372 72.5537 11.1372C71.5557 11.1372 70.7627 10.759 70.1748 10.0024C69.5869 9.24137 69.293 8.21143 69.293 6.9126V5.10791C69.293 3.81364 69.5938 2.79053 70.1953 2.03857C70.8014 1.28662 71.6263 0.910645 72.6699 0.910645C73.6315 0.910645 74.3743 1.20003 74.8984 1.77881C75.4271 2.35303 75.7142 3.17562 75.7598 4.24658H74.4951C74.4404 3.43538 74.2695 2.85661 73.9824 2.51025C73.6953 2.1639 73.2578 1.99072 72.6699 1.99072C71.9909 1.99072 71.4691 2.25732 71.1045 2.79053C70.7399 3.31917 70.5576 4.09619 70.5576 5.12158V6.94678C70.5576 7.95394 70.7262 8.7264 71.0635 9.26416C71.4053 9.80192 71.902 10.0708 72.5537 10.0708C73.2054 10.0708 73.6748 9.90902 73.9619 9.58545C74.249 9.26188 74.4268 8.68083 74.4951 7.84229H75.7598ZM82.2334 6.3999H78.7129V9.92725H82.8145V11.0005H77.4619V1.04736H82.7461V2.12744H78.7129V5.32666H82.2334V6.3999ZM87.4287 6.97412H85.6787V11.0005H84.4209V1.04736H87.21C88.1852 1.04736 88.9235 1.30257 89.4248 1.81299C89.9261 2.31885 90.1768 3.06169 90.1768 4.0415C90.1768 4.65674 90.04 5.1945 89.7666 5.65479C89.4977 6.11051 89.1149 6.45459 88.6182 6.68701L90.5459 10.9185V11.0005H89.1992L87.4287 6.97412ZM85.6787 5.90088H87.1963C87.7204 5.90088 88.1374 5.73226 88.4473 5.39502C88.7617 5.05778 88.9189 4.60661 88.9189 4.0415C88.9189 2.76546 88.3402 2.12744 87.1826 2.12744H85.6787V5.90088ZM97.1289 2.12744H94.5107V11.0005H93.2598V2.12744H90.6484V1.04736H97.1289V2.12744ZM99.9043 11.0005H98.6533V1.04736H99.9043V11.0005ZM106.713 6.60498H103.35V11.0005H102.099V1.04736H107.28V2.12744H103.35V5.53174H106.713V6.60498ZM110.131 11.0005H108.88V1.04736H110.131V11.0005ZM118.566 7.84229C118.512 8.90869 118.211 9.72445 117.664 10.2896C117.122 10.8547 116.354 11.1372 115.36 11.1372C114.362 11.1372 113.569 10.759 112.981 10.0024C112.394 9.24137 112.1 8.21143 112.1 6.9126V5.10791C112.1 3.81364 112.4 2.79053 113.002 2.03857C113.608 1.28662 114.433 0.910645 115.477 0.910645C116.438 0.910645 117.181 1.20003 117.705 1.77881C118.234 2.35303 118.521 3.17562 118.566 4.24658H117.302C117.247 3.43538 117.076 2.85661 116.789 2.51025C116.502 2.1639 116.064 1.99072 115.477 1.99072C114.798 1.99072 114.276 2.25732 113.911 2.79053C113.547 3.31917 113.364 4.09619 113.364 5.12158V6.94678C113.364 7.95394 113.533 8.7264 113.87 9.26416C114.212 9.80192 114.709 10.0708 115.36 10.0708C116.012 10.0708 116.481 9.90902 116.769 9.58545C117.056 9.26188 117.233 8.68083 117.302 7.84229H118.566ZM124.91 8.40283H121.547L120.774 11.0005H119.489L122.695 1.04736H123.769L126.981 11.0005H125.696L124.91 8.40283ZM121.875 7.32275H124.589L123.229 2.79736L121.875 7.32275ZM133.264 2.12744H130.646V11.0005H129.395V2.12744H126.783V1.04736H133.264V2.12744ZM139.505 6.3999H135.984V9.92725H140.086V11.0005H134.733V1.04736H140.018V2.12744H135.984V5.32666H139.505V6.3999Z" fill="#F38438"/>
</svg>
