<svg width="124" height="42" viewBox="0 0 124 42" fill="none" xmlns="http://www.w3.org/2000/svg">
<path d="M0 4C0 1.79086 1.79086 0 4 0H120C122.209 0 124 1.79086 124 4V38C124 40.2091 122.209 42 120 42H4C1.79086 42 0 40.2091 0 38V4Z" fill="url(#paint0_linear_372_2276)"/>
<path d="M28.2236 21.6934H25.0928V24.332H28.7979V26H23.083V16.0469H28.7842V17.7217H25.0928V20.0732H28.2236V21.6934ZM36.9189 26H34.9092L31.9697 19.4717V26H29.96V16.0469H31.9697L34.916 22.582V16.0469H36.9189V26ZM41.5469 22.3633H40.5488V26H38.5391V16.0469H41.7451C42.7523 16.0469 43.5293 16.3089 44.0762 16.833C44.6276 17.3525 44.9033 18.0931 44.9033 19.0547C44.9033 20.3763 44.4225 21.3014 43.4609 21.8301L45.2041 25.9043V26H43.0439L41.5469 22.3633ZM40.5488 20.6885H41.6904C42.0915 20.6885 42.3923 20.5563 42.5928 20.292C42.7933 20.0231 42.8936 19.6654 42.8936 19.2188C42.8936 18.2207 42.5039 17.7217 41.7246 17.7217H40.5488V20.6885ZM53.291 21.9189C53.291 23.2542 52.9743 24.291 52.3408 25.0293C51.7119 25.7676 50.8369 26.1367 49.7158 26.1367C48.5993 26.1367 47.722 25.7721 47.084 25.043C46.446 24.3092 46.1224 23.2839 46.1133 21.9668V20.2646C46.1133 18.8975 46.43 17.8311 47.0635 17.0654C47.6969 16.2952 48.5765 15.9102 49.7021 15.9102C50.8096 15.9102 51.6823 16.2884 52.3203 17.0449C52.9583 17.7969 53.2819 18.8542 53.291 20.2168V21.9189ZM51.2744 20.251C51.2744 19.3532 51.1468 18.6855 50.8916 18.248C50.6364 17.8105 50.2399 17.5918 49.7021 17.5918C49.1689 17.5918 48.7747 17.8037 48.5195 18.2275C48.2643 18.6468 48.1322 19.2871 48.123 20.1484V21.9189C48.123 22.7894 48.2529 23.432 48.5127 23.8467C48.7725 24.2568 49.1735 24.4619 49.7158 24.4619C50.2399 24.4619 50.6296 24.2614 50.8848 23.8604C51.14 23.4548 51.2699 22.8281 51.2744 21.9805V20.251ZM56.7432 24.332H60.2705V26H54.7334V16.0469H56.7432V24.332ZM63.4424 24.332H66.9697V26H61.4326V16.0469H63.4424V24.332ZM78.3174 26H76.3076L73.3682 19.4717V26H71.3584V16.0469H73.3682L76.3145 22.582V16.0469H78.3174V26ZM86.9375 21.9189C86.9375 23.2542 86.6208 24.291 85.9873 25.0293C85.3584 25.7676 84.4834 26.1367 83.3623 26.1367C82.2458 26.1367 81.3685 25.7721 80.7305 25.043C80.0924 24.3092 79.7689 23.2839 79.7598 21.9668V20.2646C79.7598 18.8975 80.0765 17.8311 80.71 17.0654C81.3434 16.2952 82.223 15.9102 83.3486 15.9102C84.4561 15.9102 85.3288 16.2884 85.9668 17.0449C86.6048 17.7969 86.9284 18.8542 86.9375 20.2168V21.9189ZM84.9209 20.251C84.9209 19.3532 84.7933 18.6855 84.5381 18.248C84.2829 17.8105 83.8864 17.5918 83.3486 17.5918C82.8154 17.5918 82.4212 17.8037 82.166 18.2275C81.9108 18.6468 81.7786 19.2871 81.7695 20.1484V21.9189C81.7695 22.7894 81.8994 23.432 82.1592 23.8467C82.4189 24.2568 82.82 24.4619 83.3623 24.4619C83.8864 24.4619 84.276 24.2614 84.5312 23.8604C84.7865 23.4548 84.9163 22.8281 84.9209 21.9805V20.251ZM94.8467 22.3018L95.79 16.0469H97.7793L96.0088 26H93.9922L92.8301 20.1348L91.6816 26H89.6582L87.8809 16.0469H89.8838L90.8203 22.2949L91.9893 16.0469H93.6777L94.8467 22.3018ZM100.746 22.9375H99.1396L98.9141 16.0469H100.972L100.746 22.9375ZM98.8799 25.0635C98.8799 24.7536 98.9779 24.5007 99.1738 24.3047C99.3698 24.1042 99.625 24.0039 99.9395 24.0039C100.249 24.0039 100.502 24.1042 100.698 24.3047C100.894 24.5007 100.992 24.7536 100.992 25.0635C100.992 25.3688 100.894 25.6195 100.698 25.8154C100.507 26.0114 100.254 26.1094 99.9395 26.1094C99.6204 26.1094 99.363 26.0114 99.167 25.8154C98.9756 25.6195 98.8799 25.3688 98.8799 25.0635Z" fill="white"/>
<defs>
<linearGradient id="paint0_linear_372_2276" x1="114.028" y1="-1.57266e-06" x2="30.5572" y2="75.6958" gradientUnits="userSpaceOnUse">
<stop stop-color="#F38438"/>
<stop offset="1" stop-color="#EA2A59"/>
</linearGradient>
</defs>
</svg>
