<svg width="22" height="20" viewBox="0 0 22 20" fill="none" xmlns="http://www.w3.org/2000/svg">
<path d="M11 19.266L9.65943 20.7502L10.9759 21.9392L12.3136 20.7742L11 19.266ZM9.51308 17.923L8.17052 19.4054L8.17251 19.4072L9.51308 17.923ZM3.22965 11.7834L1.70798 13.0813L1.71887 13.0941L1.72998 13.1067L3.22965 11.7834ZM1.31105 8.85756L-0.550457 9.58886L-0.54587 9.60054L-0.541138 9.61215L1.31105 8.85756ZM2.36628 2.14244L0.952065 0.728228L0.941512 0.738781L0.931118 0.749491L2.36628 2.14244ZM11 2.67006L9.47194 3.96042L11 5.76996L12.5281 3.96042L11 2.67006ZM19.5858 2.14244L18.1506 3.53539L18.161 3.5461L18.1715 3.55666L19.5858 2.14244ZM17.2355 13.5102L15.8213 12.096L15.8097 12.1076L15.7983 12.1193L17.2355 13.5102ZM12.4869 17.9709L13.8005 19.4791L13.8121 19.4689L13.8237 19.4586L12.4869 17.9709ZM12.3406 17.7818L10.8537 16.4388L8.17251 19.4072L9.65943 20.7502L12.3406 17.7818ZM10.8556 16.4406C9.16277 14.9074 7.94935 13.7882 7.20358 13.0735L4.43596 15.9614C5.22507 16.7177 6.47386 17.8688 8.17052 19.4054L10.8556 16.4406ZM7.20358 13.0735C6.48789 12.3876 5.66397 11.5195 4.72933 10.4602L1.72998 13.1067C2.71394 14.2218 3.61676 15.1764 4.43596 15.9614L7.20358 13.0735ZM4.75132 10.4855C3.89686 9.48375 3.40361 8.69299 3.16323 8.10296L-0.541138 9.61215C-0.0780304 10.7489 0.707794 11.9087 1.70798 13.0813L4.75132 10.4855ZM3.17255 8.12625C2.90885 7.45501 2.78343 6.79125 2.78343 6.12355H-1.21657C-1.21657 7.3105 -0.990241 8.46941 -0.550457 9.58886L3.17255 8.12625ZM2.78343 6.12355C2.78343 5.05702 3.12198 4.23545 3.80144 3.53539L0.931118 0.749491C-0.499883 2.22386 -1.21657 4.05635 -1.21657 6.12355H2.78343ZM3.78049 3.55666C4.47627 2.86088 5.30335 2.51163 6.39535 2.51163V-1.48837C4.28967 -1.48837 2.43071 -0.750413 0.952065 0.728228L3.78049 3.55666ZM6.39535 2.51163C7.65055 2.51163 8.63004 2.96343 9.47194 3.96042L12.5281 1.3797C10.9397 -0.501223 8.84945 -1.48837 6.39535 -1.48837V2.51163ZM12.5281 3.96042C13.37 2.96343 14.3494 2.51163 15.6047 2.51163V-1.48837C13.1506 -1.48837 11.0603 -0.501223 9.47194 1.3797L12.5281 3.96042ZM15.6047 2.51163C16.6961 2.51163 17.4946 2.85955 18.1506 3.53539L21.0209 0.749491C19.5664 -0.749087 17.7109 -1.48837 15.6047 -1.48837V2.51163ZM18.1715 3.55666C18.8757 4.26085 19.2166 5.07578 19.2166 6.12355H23.2166C23.2166 4.0376 22.4702 2.19846 21 0.728228L18.1715 3.55666ZM19.2166 6.12355C19.2166 6.91146 18.9562 7.84576 18.2689 8.95601L21.67 11.0614C22.6455 9.48563 23.2166 7.82982 23.2166 6.12355H19.2166ZM18.2689 8.95601C17.5087 10.1842 16.6907 11.2265 15.8213 12.096L18.6497 14.9244C19.7628 13.8113 20.7675 12.5193 21.67 11.0614L18.2689 8.95601ZM15.7983 12.1193C14.8906 13.0572 13.3519 14.5049 11.1502 16.4833L13.8237 19.4586C16.0347 17.4718 17.6617 15.9457 18.6727 14.901L15.7983 12.1193ZM11.1734 16.4628L9.68644 17.7578L12.3136 20.7742L13.8005 19.4791L11.1734 16.4628Z" fill="#F38438"/>
</svg>
