<svg width="18" height="18" viewBox="0 0 18 18" fill="none" xmlns="http://www.w3.org/2000/svg">
<path d="M9 12.75C9.39782 12.75 9.77936 12.592 10.0607 12.3107C10.342 12.0294 10.5 11.6478 10.5 11.25C10.5 10.4175 9.825 9.75 9 9.75C8.60218 9.75 8.22064 9.90804 7.93934 10.1893C7.65804 10.4706 7.5 10.8522 7.5 11.25C7.5 11.6478 7.65804 12.0294 7.93934 12.3107C8.22064 12.592 8.60218 12.75 9 12.75ZM13.5 6C13.8978 6 14.2794 6.15804 14.5607 6.43934C14.842 6.72064 15 7.10218 15 7.5V15C15 15.3978 14.842 15.7794 14.5607 16.0607C14.2794 16.342 13.8978 16.5 13.5 16.5H4.5C4.10218 16.5 3.72064 16.342 3.43934 16.0607C3.15804 15.7794 3 15.3978 3 15V7.5C3 6.6675 3.675 6 4.5 6H5.25V4.5C5.25 3.50544 5.64509 2.55161 6.34835 1.84835C7.05161 1.14509 8.00544 0.75 9 0.75C9.49246 0.75 9.98009 0.846997 10.4351 1.03545C10.89 1.22391 11.3034 1.50013 11.6517 1.84835C11.9999 2.19657 12.2761 2.60997 12.4645 3.06494C12.653 3.51991 12.75 4.00754 12.75 4.5V6H13.5ZM9 2.25C8.40326 2.25 7.83097 2.48705 7.40901 2.90901C6.98705 3.33097 6.75 3.90326 6.75 4.5V6H11.25V4.5C11.25 3.90326 11.0129 3.33097 10.591 2.90901C10.169 2.48705 9.59674 2.25 9 2.25Z" fill="white"/>
</svg>
