<svg width="21" height="21" viewBox="0 0 21 21" fill="none" xmlns="http://www.w3.org/2000/svg">
<path d="M20.0837 0.916748H4.75033V16.2501H20.0837V0.916748ZM10.0212 9.54175H7.62533V11.4584H6.18783V5.70842H10.0212V9.54175ZM14.8128 10.0209C14.8128 10.8163 14.1707 11.4584 13.3753 11.4584H10.9795V5.70842H13.3753C14.1707 5.70842 14.8128 6.3505 14.8128 7.14592V10.0209ZM18.6462 7.14592H17.2087V8.10425H18.6462V9.54175H17.2087V11.4584H15.7712V5.70842H18.6462V7.14592ZM7.62533 8.10425H8.58366V7.14592H7.62533V8.10425ZM2.83366 4.75008H0.916992V20.0834H16.2503V18.1667H2.83366V4.75008ZM12.417 10.0209H13.3753V7.14592H12.417V10.0209Z" fill="#CC4A4B"/>
</svg>
