<svg width="18" height="20" viewBox="0 0 18 20" fill="none" xmlns="http://www.w3.org/2000/svg">
<path d="M9 3C11.2543 3 13.4163 3.89553 15.0104 5.48959C16.6045 7.08365 17.5 9.24566 17.5 11.5C17.5 13.7543 16.6045 15.9163 15.0104 17.5104C13.4163 19.1045 11.2543 20 9 20C6.74566 20 4.58365 19.1045 2.98959 17.5104C1.39553 15.9163 0.5 13.7543 0.5 11.5C0.5 9.24566 1.39553 7.08365 2.98959 5.48959C4.58365 3.89553 6.74566 3 9 3ZM9 6C8.81876 6.00001 8.64366 6.06564 8.50707 6.18477C8.37048 6.30389 8.28165 6.46845 8.257 6.648L8.25 6.75V11.25L8.257 11.352C8.2817 11.5315 8.37055 11.696 8.50714 11.8151C8.64372 11.9342 8.8188 11.9998 9 11.9998C9.1812 11.9998 9.35628 11.9342 9.49286 11.8151C9.62945 11.696 9.7183 11.5315 9.743 11.352L9.75 11.25V6.75L9.743 6.648C9.71835 6.46845 9.62952 6.30389 9.49293 6.18477C9.35634 6.06564 9.18124 6.00001 9 6ZM16.17 3.123L16.252 3.184L17.401 4.184C17.545 4.30867 17.6362 4.48345 17.656 4.67287C17.6758 4.86229 17.6229 5.05217 17.5079 5.20397C17.3928 5.35578 17.2244 5.45813 17.0366 5.49026C16.8489 5.5224 16.656 5.4819 16.497 5.377L16.416 5.316L15.267 4.316C15.1243 4.19107 15.0342 4.01668 15.0149 3.82797C14.9955 3.63926 15.0485 3.45025 15.1629 3.299C15.2774 3.14774 15.445 3.04549 15.6318 3.01283C15.8187 2.98018 16.011 3.01954 16.17 3.123ZM11.25 0.5C11.44 0.500058 11.6229 0.572245 11.7618 0.701973C11.9006 0.831701 11.9851 1.0093 11.998 1.19888C12.011 1.38846 11.9515 1.57589 11.8316 1.7233C11.7117 1.87071 11.5402 1.9671 11.352 1.993L11.25 2H6.75C6.55998 1.99994 6.37706 1.92776 6.23821 1.79803C6.09936 1.6683 6.01493 1.4907 6.00197 1.30112C5.98902 1.11154 6.04851 0.924108 6.16843 0.776701C6.28835 0.629294 6.45975 0.532901 6.648 0.507L6.75 0.5H11.25Z" fill="#64666B"/>
</svg>
