<svg width="35" height="35" viewBox="0 0 35 35" fill="none" xmlns="http://www.w3.org/2000/svg">
<path d="M31.7188 0H3.28125C1.47656 0 0 1.47656 0 3.28125V31.7188C0 33.5234 1.47656 35 3.28125 35H31.7188C33.5234 35 35 33.5234 35 31.7188V3.28125C35 1.47656 33.5234 0 31.7188 0ZM24.0625 5.46875C24.0625 4.86719 24.5547 4.375 25.1562 4.375H29.5312C30.1328 4.375 30.625 4.86719 30.625 5.46875V9.84375C30.625 10.4453 30.1328 10.9375 29.5312 10.9375H25.1562C24.8663 10.9369 24.5885 10.8215 24.3835 10.6165C24.1785 10.4115 24.0631 10.1337 24.0625 9.84375V5.46875ZM17.5 10.9375C19.2111 10.9817 20.8374 11.6925 22.032 12.9184C23.2267 14.1443 23.8952 15.7883 23.8952 17.5C23.8952 19.2117 23.2267 20.8557 22.032 22.0816C20.8374 23.3075 19.2111 24.0183 17.5 24.0625C15.7889 24.0183 14.1626 23.3075 12.968 22.0816C11.7733 20.8557 11.1048 19.2117 11.1048 17.5C11.1048 15.7883 11.7733 14.1443 12.968 12.9184C14.1626 11.6925 15.7889 10.9817 17.5 10.9375ZM30.625 29.5312C30.625 30.1328 30.1328 30.625 29.5312 30.625H5.46875C5.17885 30.6244 4.90098 30.509 4.69599 30.304C4.491 30.099 4.37558 29.8212 4.375 29.5312V15.3125H6.78125C6.45642 16.9018 6.48926 18.5436 6.8774 20.1186C7.26554 21.6937 7.99924 23.1627 9.02534 24.4192C10.0514 25.6756 11.3442 26.688 12.81 27.383C14.2758 28.078 15.8778 28.4382 17.5 28.4375C19.1222 28.4382 20.7242 28.078 22.19 27.383C23.6558 26.688 24.9486 25.6756 25.9747 24.4192C27.0008 23.1627 27.7345 21.6937 28.1226 20.1186C28.5107 18.5436 28.5436 16.9018 28.2188 15.3125H30.625V29.5312Z" fill="#383A40"/>
</svg>
