<svg width="24" height="24" viewBox="0 0 24 24" fill="none" xmlns="http://www.w3.org/2000/svg">
<circle cx="12" cy="12" r="12" fill="#0099FF"/>
<path d="M6.35355 11.1464C6.15829 10.9512 5.84171 10.9512 5.64645 11.1464C5.45118 11.3417 5.45118 11.6583 5.64645 11.8536L6.35355 11.1464ZM10 15.5L9.64645 15.8536L10 16.2071L10.3536 15.8536L10 15.5ZM18.8536 7.35355C19.0488 7.15829 19.0488 6.84171 18.8536 6.64645C18.6583 6.45118 18.3417 6.45118 18.1464 6.64645L18.8536 7.35355ZM5.64645 11.8536L9.64645 15.8536L10.3536 15.1464L6.35355 11.1464L5.64645 11.8536ZM10.3536 15.8536L18.8536 7.35355L18.1464 6.64645L9.64645 15.1464L10.3536 15.8536Z" fill="#1A1D24"/>
</svg>
