<svg width="35" height="35" viewBox="0 0 35 35" fill="none" xmlns="http://www.w3.org/2000/svg">
<path d="M17.5 0C7.83594 0 0 7.83594 0 17.5C0 27.1641 7.83594 35 17.5 35C27.1641 35 35 27.1641 35 17.5C35 7.83594 27.1641 0 17.5 0ZM25.9102 13.1914C25.9219 13.375 25.9219 13.5664 25.9219 13.7539C25.9219 19.4883 21.5547 26.0938 13.5742 26.0938C11.1133 26.0938 8.83203 25.3789 6.91016 24.1484C7.26172 24.1875 7.59766 24.2031 7.95703 24.2031C9.98828 24.2031 11.8555 23.5156 13.3438 22.3516C11.4375 22.3125 9.83594 21.0625 9.28906 19.3438C9.95703 19.4414 10.5586 19.4414 11.2461 19.2656C10.2646 19.0662 9.38232 18.5331 8.74928 17.757C8.11624 16.9808 7.77143 16.0094 7.77344 15.0078V14.9531C8.34766 15.2773 9.02344 15.4766 9.73047 15.5039C9.1361 15.1078 8.64866 14.5711 8.31137 13.9415C7.97408 13.3119 7.79736 12.6088 7.79688 11.8945C7.79688 11.0859 8.00781 10.3477 8.38672 9.70703C9.47618 11.0482 10.8357 12.1451 12.3768 12.9264C13.918 13.7078 15.6063 14.1561 17.332 14.2422C16.7188 11.293 18.9219 8.90625 21.5703 8.90625C22.8203 8.90625 23.9453 9.42969 24.7383 10.2734C25.7187 10.0898 26.6562 9.72266 27.4922 9.23047C27.168 10.2344 26.4883 11.082 25.5859 11.6172C26.4609 11.5234 27.3047 11.2812 28.0859 10.9414C27.4961 11.8086 26.7578 12.5781 25.9102 13.1914Z" fill="#383A40"/>
</svg>
