<svg width="35" height="35" viewBox="0 0 35 35" fill="none" xmlns="http://www.w3.org/2000/svg">
<g clip-path="url(#clip0_400_3772)">
<path d="M9.10156 19.3833H10.5209V26.4024H11.882V19.3833H13.3013V18.1973H9.10156V19.3833Z" fill="#383A40"/>
<path d="M16.275 24.9421C16.0417 25.2143 15.2446 25.7587 15.2446 24.981V20.334H14.0391V25.4087C14.0391 26.9447 15.5751 26.5364 16.2945 25.7392V26.4003H17.5V20.334H16.2945V24.9421H16.275Z" fill="#383A40"/>
<path d="M20.7666 20.2951C20.0667 20.2951 19.6195 20.8201 19.6195 20.8201V18.1758H18.3945V26.4003H19.6195V25.9337C19.6195 25.9337 20.0278 26.4781 20.7666 26.4781C21.4083 26.4781 21.8943 25.9142 21.8943 25.1365V21.7728C21.8943 20.859 21.4666 20.2951 20.7666 20.2951ZM20.6305 24.981C20.6305 25.4282 20.3194 25.642 19.9111 25.4671C19.8009 25.4155 19.7018 25.3428 19.6195 25.2532V21.4812C19.6972 21.4034 19.7945 21.3451 19.8722 21.2867C20.3 21.0728 20.6305 21.4034 20.6305 21.8506V24.981Z" fill="#383A40"/>
<path d="M25.1239 24.6714C25.1239 25.138 24.8711 25.4491 24.5795 25.4686C24.2684 25.488 23.9573 25.2353 23.9573 24.6714V23.5242H26.271V21.9688C26.277 21.7319 26.2353 21.4963 26.1485 21.2759C26.0616 21.0554 25.9314 20.8547 25.7655 20.6855C25.431 20.3804 24.9932 20.2136 24.5406 20.2189C24.1128 20.2189 23.6656 20.355 23.3156 20.6272C22.9462 20.9188 22.7129 21.366 22.7129 21.9688V24.6908C22.7129 25.2353 22.8879 25.663 23.1601 25.9741C23.4906 26.3241 23.9378 26.5185 24.4045 26.538C24.9683 26.5574 25.5711 26.3241 25.921 25.838C26.1349 25.5464 26.271 25.1575 26.271 24.6908V24.3798H25.1239V24.6714ZM23.9573 21.9688C23.9573 21.6382 24.1517 21.2494 24.5211 21.2494C24.8905 21.2494 25.1239 21.5994 25.1239 21.9688V22.591H23.9573V21.9688Z" fill="#383A40"/>
<path d="M17.4991 2.70279e-08C15.2009 0.00012766 12.9253 0.452905 10.8022 1.33248C8.679 2.21206 6.74989 3.50121 5.12495 5.12632C3.50001 6.75144 2.21108 8.6807 1.33174 10.804C0.452397 12.9272 -0.00012764 15.2029 2.70057e-08 17.501C0.000127694 19.7991 0.452906 22.0747 1.33248 24.1979C2.21206 26.321 3.50121 28.2502 5.12633 29.8751C6.75144 31.5 8.6807 32.789 10.804 33.6683C12.9272 34.5476 15.2029 35.0002 17.501 35C22.1423 34.9998 26.5934 33.1558 29.8751 29.8737C33.1568 26.5916 35.0003 22.1403 35 17.499C34.9998 12.8578 33.1558 8.40666 29.8737 5.12495C26.5916 1.84324 22.1403 -0.000257739 17.4991 2.70279e-08ZM20.5711 6.55242H22.1266V11.7632C22.1266 12.0938 22.2821 12.0938 22.3405 12.0938C22.5738 12.0938 22.9238 11.841 23.0987 11.666V6.53298H24.6542V13.4159H23.0987V12.8132C22.8849 13.0076 22.671 13.1632 22.4571 13.2798C22.1655 13.4354 21.8933 13.4937 21.621 13.4937C21.472 13.5008 21.3232 13.4749 21.1854 13.4178C21.0476 13.3606 20.9241 13.2737 20.8239 13.1632C20.6489 12.9493 20.5711 12.6188 20.5711 12.2104V6.55242ZM15.613 8.36066C15.613 7.29127 16.488 6.41632 17.5574 6.41632C18.6268 6.41632 19.5017 7.29127 19.5017 8.36066V11.666C19.5017 12.7354 18.6268 13.6104 17.5574 13.6104C16.488 13.6104 15.613 12.7354 15.613 11.666V8.36066ZM11.5688 4.18033L12.5021 7.60236L13.4548 4.18033H15.2242L13.3965 9.58559V13.4159H11.666V9.58559L9.79947 4.18033H11.5688ZM26.9291 28.5623C25.9375 29.5345 17.5379 29.554 17.5379 29.554C17.5379 29.554 9.15784 29.5345 8.14678 28.5623C7.15517 27.5902 7.15517 22.7488 7.15517 22.7099C7.15517 22.6904 7.15517 17.849 8.14678 16.8574C9.13839 15.8852 17.5379 15.8658 17.5379 15.8658C17.5379 15.8658 25.918 15.8852 26.9291 16.8574C27.9207 17.8296 27.9402 22.671 27.9402 22.7099C27.9402 22.7099 27.9402 27.5707 26.9291 28.5623Z" fill="#383A40"/>
<path d="M17.48 13C17.82 13 17.98 12.75 18 12.35V7.6C18 7.275 17.74 7 17.5 7C17.26 7 17 7.25 17 7.6V12.35C17 12.725 17.14 12.975 17.48 13Z" fill="#383A40"/>
</g>
<defs>
<clipPath id="clip0_400_3772">
<rect width="35" height="35" fill="white"/>
</clipPath>
</defs>
</svg>
